# xmcd
#
# Track frame offsets:
#	182
#	19385
#	40120
#	53472
#	69907
#	88392
#	106130
#	119947
#	137695
#	152000
#	170300
#	186832
#	207405
#
# Disc length: 2967 seconds
#
# Revision: 2
# Processed by: cddbd v1.5.1PL0 Copyright (c) Steve Scherf et al.
# Submitted via: audiograbber 1.83.01
#
DISCID=b30b950d
DTITLE=Stars Compilation - Slows Made In France
DYEAR=1900
DGENRE=Slows
TTITLE0=F.gray - D. Barbelivien - A Toutes Les Filles
TTITLE1=Viktor Lazlo - Le Canoé Rose
TTITLE2=C. Jérome - Dernier Baisé
TTITLE3=Anaïs - Annabelle Ou Anaïs
TTITLE4=Claude Barzotti - Mais Quel Amour
TTITLE5=Michèle Torr - Je Suis Love
TTITLE6=Nicole Croisille - Les Coeurs Brûlés
TTITLE7=J-P François - Il A Neigé Sur Les Lacs
TTITLE8=Adamo - Tombe La Neige
TTITLE9=Dominique Gozzi - Les Années Difficilles
TTITLE10=Ginette Reno - L'amour Intégral
TTITLE11=Guy Marchand - Destinée
TTITLE12=Joanne Labelle - J'ai Du Partir
EXTD=
EXTT0=
EXTT1=
EXTT2=
EXTT3=
EXTT4=
EXTT5=
EXTT6=
EXTT7=
EXTT8=
EXTT9=
EXTT10=
EXTT11=
EXTT12=
PLAYORDER=
